# xmcd
#
# Track frame offsets:
#	150
#	14457
#	27769
#	47144
#	60198
#	78149
#	98780
#	116039
#	130671
#	148121
#	161583
#	181385
#	197395
#	211511
#	227131
#	241980
#	261159
#	273791
#	283175
#	304999
#	321574
#
# Disc length: 4505 seconds
#
# Revision: 0
# Processed by: cddbd v1.5.2PL0 Copyright (c) Steve Scherf et al.
# Submitted via: EZCDAudioConverter 7.1.0.1
#
DISCID=20119715
DTITLE=Nu Urban Traxx Volume 250 US
DYEAR=2018
DGENRE=blues
TTITLE0=Kanye West - Yikes
TTITLE1=City Girls - I'll Take Your Man
TTITLE2=Swae Lee ft. Slim Jxmmi - Guatemala
TTITLE3=A Boogie Wit Da Hoodie ft. Davido - Way Too Fly
TTITLE4=YG ft. 2 Chainz, Big Sean and Nicki Minaj - Big Bank
TTITLE5=Mike Will Made-It - Aries Part 2 (YuGo)
TTITLE6=Ne-Yo - Good Man
TTITLE7=Kyle ft. Kehlani - Playinwitme
TTITLE8=Tyga ft. Offset - Taste
TTITLE9=Jeremih x Ty Dolla $ign - The Light
TTITLE10=Khalid ft. Ty Dolla $ign and 6lack - OTW
TTITLE11=G-Eazy ft. Yo Gotti and YBN Nahmir - 1942
TTITLE12=Derez De'Shon - Fed Up
TTITLE13=Post Malone ft. Nicki Minaj - Ball For Me
TTITLE14=Russ - Back To Life
TTITLE15=A.Chal ft. 2 Chainz and Nicky Jam - Love and Hennessy [Remix]
TTITLE16=Lil Baby ft. Moneybagg Yo - All Of A Sudden
TTITLE17=Wiz Khalifa ft. Gucci Mane - Real Rich
TTITLE18=Toni Braxton - Long As I Live
TTITLE19=Peabo Bryson - Love Like Yours And Mine
TTITLE20=Andy Stokes - Best Day Ever
EXTD=
EXTT0=
EXTT1=
EXTT2=
EXTT3=
EXTT4=
EXTT5=
EXTT6=
EXTT7=
EXTT8=
EXTT9=
EXTT10=
EXTT11=
EXTT12=
EXTT13=
EXTT14=
EXTT15=
EXTT16=
EXTT17=
EXTT18=
EXTT19=
EXTT20=
PLAYORDER=
